# xmcd CD database file
#
# Track frame offsets:
#	150
#	20297
#	35105
#	49530
#	60850
#	77370
#	91055
#	111247
#	129272
#	141532
#
# Disc length: 2080 seconds
#
# Revision: 0
# Processed by: cddbd v1.4PL0 Copyright (c) Steve Scherf et al.
# Submitted via: CDex 1.50beta10
#
DISCID=75081e0a
DTITLE=Vicki Taylor and Mary Flower - High Heeled Blues
DYEAR=1991
DGENRE=Blues
TTITLE0=Down Home Blues
TTITLE1=The Dirty Dozens
TTITLE2=You Can't Do That
TTITLE3=Skyline
TTITLE4=Rockin' My Blues to Sleep
TTITLE5=Hey Now Baby
TTITLE6=Stone Sober
TTITLE7=Love's So Tired
TTITLE8=Henhouse Blues
TTITLE9=It's Over
EXTD=YEAR: 1991
EXTT0=
EXTT1=
EXTT2=
EXTT3=
EXTT4=
EXTT5=
EXTT6=
EXTT7=
EXTT8=
EXTT9=
PLAYORDER=
